<?xml version="1.0" encoding="UTF-8"?>
<svg width="644px" height="473px" viewBox="0 0 644 473" version="1.1" xmlns="http://www.w3.org/2000/svg" xmlns:xlink="http://www.w3.org/1999/xlink">
    <!-- Generator: Sketch 52.5 (67469) - http://www.bohemiancoding.com/sketch -->
    <title>Group 15</title>
    <desc>Created with Sketch.</desc>
    <defs>
        <rect id="path-1" x="0" y="0" width="335" height="346" rx="8"></rect>
        <linearGradient x1="50%" y1="0%" x2="50%" y2="97.7126987%" id="linearGradient-3">
            <stop stop-color="#2B2444" offset="0%"></stop>
            <stop stop-color="#FFFFFF" stop-opacity="0.345391757" offset="100%"></stop>
        </linearGradient>
    </defs>
    <g id="Enterprise" stroke="none" stroke-width="1" fill="none" fill-rule="evenodd">
        <g id="Artboard" transform="translate(-1128.000000, -1360.000000)">
            <g id="Group-15" transform="translate(1128.000000, 1360.000000)">
                <path d="M2.10605385,279.55512 C47.6891873,155.923448 125.314259,94.0717746 234.981269,94.0001005 C399.481784,93.8925893 565.873109,180.07761 591.399051,274.769991 C616.924993,369.462371 584.781214,450.684766 506.312578,444.687672 C427.843942,438.690577 373.86091,394.951943 286.033153,384.716726 C198.205396,374.481508 85.2029421,422.698325 38.1213585,383.71721 C6.7336361,357.7298 -5.27146545,323.009103 2.10605385,279.55512 Z" id="Path-4" fill="#F5F6F8" opacity="0.886300223"></path>
                <g id="Web" transform="translate(161.000000, 94.000000)">
                    <mask id="mask-2" fill="white">
                        <use xlink:href="#path-1"></use>
                    </mask>
                    <use id="Container" fill="#F2F2F2" xlink:href="#path-1"></use>
                    <rect id="Container" fill="#FFFFFF" mask="url(#mask-2)" x="186" y="44" width="139" height="157" rx="4"></rect>
                    <g id="Chart" mask="url(#mask-2)">
                        <g transform="translate(214.000000, 81.000000)" id="Value">
                            <path d="M53.0183176,52.0506 C50.3207165,54.9066 46.499291,56.7 42.2490378,56.7 C34.0822988,56.7 27.4618746,50.1186 27.4618746,42 C27.4618746,33.8814 34.0822988,27.3 42.2490378,27.3 L42.2490378,0 C19.0162919,0 0,18.9042 0,42 C0,65.0958 19.0162919,84 42.2490378,84 C54.4526724,84 65.4817837,78.8676 73,70.7028 L53.0183176,52.0506 Z" fill="#F2F2F2"></path>
                            <path d="M42,0 L42,27.3 C50.1186,27.3 56.7,33.8814 56.7,42 L84,42 C84,18.9042 65.0958,0 42,0 Z" fill="#AFB9C5"></path>
                            <path d="M56.6333248,42 C56.6333248,46.6846022 54.4271498,50.848693 51,53.537302 L67.859977,75 C77.6740878,67.316161 84,55.4052662 84,42 L56.6333248,42 Z" fill="#C5CFD6"></path>
                        </g>
                    </g>
                    <rect id="Container-Copy" fill="#FFFFFF" mask="url(#mask-2)" x="186" y="209" width="139" height="157" rx="4"></rect>
                    <g id="Graph" mask="url(#mask-2)">
                        <g transform="translate(224.000000, 248.000000)" id="Value">
                            <rect fill="#DDE3E9" x="0" y="32" width="6" height="25" rx="3"></rect>
                            <rect fill="#DDE3E9" x="14" y="16" width="6" height="41" rx="3"></rect>
                            <rect fill="#DDE3E9" x="28" y="8" width="6" height="49" rx="3"></rect>
                            <rect fill="#DDE3E9" x="42" y="16" width="6" height="41" rx="3"></rect>
                            <rect fill="#C5CFD6" x="56" y="0" width="6" height="57" rx="3"></rect>
                        </g>
                    </g>
                    <path d="M8,0 L327,0 C331.418278,-8.11624501e-16 335,3.581722 335,8 L335,27 L0,27 L0,8 C-5.41083001e-16,3.581722 3.581722,8.11624501e-16 8,0 Z" id="Header" fill="#C5CFD6" mask="url(#mask-2)"></path>
                    <g id="Buttons" mask="url(#mask-2)" fill="#F2F2F2">
                        <g transform="translate(9.000000, 10.000000)" id="buttons">
                            <circle cx="4" cy="4" r="4"></circle>
                            <circle cx="16" cy="4" r="4"></circle>
                            <circle cx="28" cy="4" r="4"></circle>
                        </g>
                    </g>
                    <g id="Rows" mask="url(#mask-2)">
                        <g transform="translate(13.000000, 44.000000)">
                            <g id="Row" transform="translate(0.000000, 289.000000)">
                                <rect id="Container" fill="#FFFFFF" x="0" y="0" width="159" height="47" rx="4"></rect>
                                <path d="M10.1740065,28.2786997 C9.94199783,27.3779601 9.94199783,26.477234 10.1740065,25.5764943 C10.4060152,24.6757547 10.863202,23.8910312 11.5455805,23.2223003 L14.2273146,20.5405661 C14.8960455,19.8718352 15.680769,19.4146485 16.5815087,19.1689922 C17.4822483,18.9233359 18.3761507,18.9233359 19.2632428,19.1689922 C20.1503348,19.4146485 20.941882,19.8718352 21.6379081,20.5405661 C21.9108595,20.8135176 22.0473332,21.147878 22.0473332,21.5436575 C22.0473332,21.9394371 21.9108595,22.2806212 21.6379081,22.5672202 C21.3649567,22.8538192 21.0237726,22.9902928 20.6143455,22.9766452 C20.2049184,22.9629977 19.8705579,22.826524 19.6112541,22.5672202 C19.1335891,22.1032028 18.5740471,21.8711976 17.9326113,21.8711976 C17.2911755,21.8711976 16.7384572,22.1032028 16.2744399,22.5672202 L13.5722345,25.2489543 C13.1218647,25.7129717 12.8966831,26.2725137 12.8966831,26.927597 C12.8966831,27.5826804 13.1252765,28.1388105 13.5824701,28.5960041 C14.0396637,29.0531977 14.5957939,29.2817911 15.2508772,29.2817911 C15.9059606,29.2817911 16.4586789,29.0566096 16.9090487,28.6062398 L17.4617725,28.0330447 C18.526283,28.5516523 19.645367,28.7904812 20.819058,28.7495385 L18.956174,30.6328938 C18.287443,31.3016247 17.5027195,31.7519878 16.6019799,31.9839965 C15.7012403,32.2160052 14.8005142,32.2160052 13.8997745,31.9839965 C12.9990349,31.7519878 12.2143114,31.3016247 11.5455805,30.6328938 C10.8768495,29.9641629 10.4196628,29.1794393 10.1740065,28.2786997 Z M16.1311411,24.5938742 C16.1311411,24.1980947 16.2710266,23.8603224 16.5508018,23.5805472 C16.830577,23.300772 17.1683493,23.1608865 17.5641288,23.1608865 C17.9599083,23.1608865 18.3010925,23.3041838 18.5876914,23.5907828 C19.0380612,24.0548002 19.5907795,24.2868054 20.2458629,24.2868054 C20.9009463,24.2868054 21.4604883,24.0548002 21.9245056,23.5907828 L24.6062398,20.8885774 C25.0702571,20.4245601 25.3022624,19.8718418 25.3022624,19.230406 C25.3022624,18.5889702 25.073669,18.0362519 24.6164754,17.5722345 C24.1592818,17.1082171 23.6031517,16.8762119 22.9480683,16.8762119 C22.2929849,16.8762119 21.7334429,17.1082171 21.2694256,17.5722345 L20.7167017,18.1044871 C19.6658388,17.6131745 18.5467549,17.3743456 17.3594163,17.3879932 L19.2223003,15.5251092 C19.9046788,14.8563783 20.696226,14.4060152 21.5969656,14.1740065 C22.4977052,13.9419978 23.3916077,13.9419978 24.2786997,14.1740065 C25.1657918,14.4060152 25.9471034,14.8563783 26.6226582,15.5251092 C27.2982129,16.1938401 27.7588115,16.9785637 28.0044677,17.8793033 C28.250124,18.7800429 28.250124,19.680769 28.0044677,20.5815087 C27.7588115,21.4822483 27.3016247,22.2669718 26.6328938,22.9357027 L23.9511597,25.6174369 C23.2824287,26.2861678 22.4977052,26.7433545 21.5969656,26.9890108 C20.696226,27.2346671 19.7954999,27.2346671 18.8947602,26.9890108 C17.9940206,26.7433545 17.2161208,26.2861678 16.5610374,25.6174369 C16.2744384,25.3308379 16.1311411,24.9896537 16.1311411,24.5938742 Z" id="link-4---fontello" fill="#DDE3E9"></path>
                                <g id="Text-Stuff" transform="translate(35.000000, 14.100000)" fill="#DDE3E9">
                                    <rect id="Label" x="0.425833283" y="0" width="113.792539" height="7.05" rx="3"></rect>
                                    <rect id="Label" x="0.425833283" y="11.75" width="76.3812936" height="7.05" rx="3"></rect>
                                </g>
                            </g>
                            <g id="Row-Copy" transform="translate(0.000000, 234.000000)">
                                <rect id="Container" fill="#FFFFFF" x="0" y="0" width="159" height="47" rx="4"></rect>
                                <path d="M10.1740065,28.2786997 C9.94199783,27.3779601 9.94199783,26.477234 10.1740065,25.5764943 C10.4060152,24.6757547 10.863202,23.8910312 11.5455805,23.2223003 L14.2273146,20.5405661 C14.8960455,19.8718352 15.680769,19.4146485 16.5815087,19.1689922 C17.4822483,18.9233359 18.3761507,18.9233359 19.2632428,19.1689922 C20.1503348,19.4146485 20.941882,19.8718352 21.6379081,20.5405661 C21.9108595,20.8135176 22.0473332,21.147878 22.0473332,21.5436575 C22.0473332,21.9394371 21.9108595,22.2806212 21.6379081,22.5672202 C21.3649567,22.8538192 21.0237726,22.9902928 20.6143455,22.9766452 C20.2049184,22.9629977 19.8705579,22.826524 19.6112541,22.5672202 C19.1335891,22.1032028 18.5740471,21.8711976 17.9326113,21.8711976 C17.2911755,21.8711976 16.7384572,22.1032028 16.2744399,22.5672202 L13.5722345,25.2489543 C13.1218647,25.7129717 12.8966831,26.2725137 12.8966831,26.927597 C12.8966831,27.5826804 13.1252765,28.1388105 13.5824701,28.5960041 C14.0396637,29.0531977 14.5957939,29.2817911 15.2508772,29.2817911 C15.9059606,29.2817911 16.4586789,29.0566096 16.9090487,28.6062398 L17.4617725,28.0330447 C18.526283,28.5516523 19.645367,28.7904812 20.819058,28.7495385 L18.956174,30.6328938 C18.287443,31.3016247 17.5027195,31.7519878 16.6019799,31.9839965 C15.7012403,32.2160052 14.8005142,32.2160052 13.8997745,31.9839965 C12.9990349,31.7519878 12.2143114,31.3016247 11.5455805,30.6328938 C10.8768495,29.9641629 10.4196628,29.1794393 10.1740065,28.2786997 Z M16.1311411,24.5938742 C16.1311411,24.1980947 16.2710266,23.8603224 16.5508018,23.5805472 C16.830577,23.300772 17.1683493,23.1608865 17.5641288,23.1608865 C17.9599083,23.1608865 18.3010925,23.3041838 18.5876914,23.5907828 C19.0380612,24.0548002 19.5907795,24.2868054 20.2458629,24.2868054 C20.9009463,24.2868054 21.4604883,24.0548002 21.9245056,23.5907828 L24.6062398,20.8885774 C25.0702571,20.4245601 25.3022624,19.8718418 25.3022624,19.230406 C25.3022624,18.5889702 25.073669,18.0362519 24.6164754,17.5722345 C24.1592818,17.1082171 23.6031517,16.8762119 22.9480683,16.8762119 C22.2929849,16.8762119 21.7334429,17.1082171 21.2694256,17.5722345 L20.7167017,18.1044871 C19.6658388,17.6131745 18.5467549,17.3743456 17.3594163,17.3879932 L19.2223003,15.5251092 C19.9046788,14.8563783 20.696226,14.4060152 21.5969656,14.1740065 C22.4977052,13.9419978 23.3916077,13.9419978 24.2786997,14.1740065 C25.1657918,14.4060152 25.9471034,14.8563783 26.6226582,15.5251092 C27.2982129,16.1938401 27.7588115,16.9785637 28.0044677,17.8793033 C28.250124,18.7800429 28.250124,19.680769 28.0044677,20.5815087 C27.7588115,21.4822483 27.3016247,22.2669718 26.6328938,22.9357027 L23.9511597,25.6174369 C23.2824287,26.2861678 22.4977052,26.7433545 21.5969656,26.9890108 C20.696226,27.2346671 19.7954999,27.2346671 18.8947602,26.9890108 C17.9940206,26.7433545 17.2161208,26.2861678 16.5610374,25.6174369 C16.2744384,25.3308379 16.1311411,24.9896537 16.1311411,24.5938742 Z" id="link-4---fontello" fill="#DDE3E9"></path>
                                <g id="Text-Stuff" transform="translate(35.000000, 14.100000)" fill="#DDE3E9">
                                    <rect id="Label" x="0.425833283" y="0" width="113.792539" height="7.05" rx="3"></rect>
                                    <rect id="Label" x="0.425833283" y="11.75" width="76.3812936" height="7.05" rx="3"></rect>
                                </g>
                            </g>
                            <g id="Row-Copy-2" transform="translate(0.000000, 179.000000)">
                                <rect id="Container" fill="#FFFFFF" x="0" y="0" width="159" height="47" rx="4"></rect>
                                <path d="M10.1740065,28.2786997 C9.94199783,27.3779601 9.94199783,26.477234 10.1740065,25.5764943 C10.4060152,24.6757547 10.863202,23.8910312 11.5455805,23.2223003 L14.2273146,20.5405661 C14.8960455,19.8718352 15.680769,19.4146485 16.5815087,19.1689922 C17.4822483,18.9233359 18.3761507,18.9233359 19.2632428,19.1689922 C20.1503348,19.4146485 20.941882,19.8718352 21.6379081,20.5405661 C21.9108595,20.8135176 22.0473332,21.147878 22.0473332,21.5436575 C22.0473332,21.9394371 21.9108595,22.2806212 21.6379081,22.5672202 C21.3649567,22.8538192 21.0237726,22.9902928 20.6143455,22.9766452 C20.2049184,22.9629977 19.8705579,22.826524 19.6112541,22.5672202 C19.1335891,22.1032028 18.5740471,21.8711976 17.9326113,21.8711976 C17.2911755,21.8711976 16.7384572,22.1032028 16.2744399,22.5672202 L13.5722345,25.2489543 C13.1218647,25.7129717 12.8966831,26.2725137 12.8966831,26.927597 C12.8966831,27.5826804 13.1252765,28.1388105 13.5824701,28.5960041 C14.0396637,29.0531977 14.5957939,29.2817911 15.2508772,29.2817911 C15.9059606,29.2817911 16.4586789,29.0566096 16.9090487,28.6062398 L17.4617725,28.0330447 C18.526283,28.5516523 19.645367,28.7904812 20.819058,28.7495385 L18.956174,30.6328938 C18.287443,31.3016247 17.5027195,31.7519878 16.6019799,31.9839965 C15.7012403,32.2160052 14.8005142,32.2160052 13.8997745,31.9839965 C12.9990349,31.7519878 12.2143114,31.3016247 11.5455805,30.6328938 C10.8768495,29.9641629 10.4196628,29.1794393 10.1740065,28.2786997 Z M16.1311411,24.5938742 C16.1311411,24.1980947 16.2710266,23.8603224 16.5508018,23.5805472 C16.830577,23.300772 17.1683493,23.1608865 17.5641288,23.1608865 C17.9599083,23.1608865 18.3010925,23.3041838 18.5876914,23.5907828 C19.0380612,24.0548002 19.5907795,24.2868054 20.2458629,24.2868054 C20.9009463,24.2868054 21.4604883,24.0548002 21.9245056,23.5907828 L24.6062398,20.8885774 C25.0702571,20.4245601 25.3022624,19.8718418 25.3022624,19.230406 C25.3022624,18.5889702 25.073669,18.0362519 24.6164754,17.5722345 C24.1592818,17.1082171 23.6031517,16.8762119 22.9480683,16.8762119 C22.2929849,16.8762119 21.7334429,17.1082171 21.2694256,17.5722345 L20.7167017,18.1044871 C19.6658388,17.6131745 18.5467549,17.3743456 17.3594163,17.3879932 L19.2223003,15.5251092 C19.9046788,14.8563783 20.696226,14.4060152 21.5969656,14.1740065 C22.4977052,13.9419978 23.3916077,13.9419978 24.2786997,14.1740065 C25.1657918,14.4060152 25.9471034,14.8563783 26.6226582,15.5251092 C27.2982129,16.1938401 27.7588115,16.9785637 28.0044677,17.8793033 C28.250124,18.7800429 28.250124,19.680769 28.0044677,20.5815087 C27.7588115,21.4822483 27.3016247,22.2669718 26.6328938,22.9357027 L23.9511597,25.6174369 C23.2824287,26.2861678 22.4977052,26.7433545 21.5969656,26.9890108 C20.696226,27.2346671 19.7954999,27.2346671 18.8947602,26.9890108 C17.9940206,26.7433545 17.2161208,26.2861678 16.5610374,25.6174369 C16.2744384,25.3308379 16.1311411,24.9896537 16.1311411,24.5938742 Z" id="link-4---fontello" fill="#DDE3E9"></path>
                                <g id="Text-Stuff" transform="translate(35.000000, 14.100000)" fill="#DDE3E9">
                                    <rect id="Label" x="0.425833283" y="0" width="113.792539" height="7.05" rx="3"></rect>
                                    <rect id="Label" x="0.425833283" y="11.75" width="76.3812936" height="7.05" rx="3"></rect>
                                </g>
                            </g>
                            <g id="Row-Copy-3" transform="translate(0.000000, 124.000000)">
                                <rect id="Container" fill="#FFFFFF" x="0" y="0" width="159" height="47" rx="4"></rect>
                                <path d="M10.1740065,28.2786997 C9.94199783,27.3779601 9.94199783,26.477234 10.1740065,25.5764943 C10.4060152,24.6757547 10.863202,23.8910312 11.5455805,23.2223003 L14.2273146,20.5405661 C14.8960455,19.8718352 15.680769,19.4146485 16.5815087,19.1689922 C17.4822483,18.9233359 18.3761507,18.9233359 19.2632428,19.1689922 C20.1503348,19.4146485 20.941882,19.8718352 21.6379081,20.5405661 C21.9108595,20.8135176 22.0473332,21.147878 22.0473332,21.5436575 C22.0473332,21.9394371 21.9108595,22.2806212 21.6379081,22.5672202 C21.3649567,22.8538192 21.0237726,22.9902928 20.6143455,22.9766452 C20.2049184,22.9629977 19.8705579,22.826524 19.6112541,22.5672202 C19.1335891,22.1032028 18.5740471,21.8711976 17.9326113,21.8711976 C17.2911755,21.8711976 16.7384572,22.1032028 16.2744399,22.5672202 L13.5722345,25.2489543 C13.1218647,25.7129717 12.8966831,26.2725137 12.8966831,26.927597 C12.8966831,27.5826804 13.1252765,28.1388105 13.5824701,28.5960041 C14.0396637,29.0531977 14.5957939,29.2817911 15.2508772,29.2817911 C15.9059606,29.2817911 16.4586789,29.0566096 16.9090487,28.6062398 L17.4617725,28.0330447 C18.526283,28.5516523 19.645367,28.7904812 20.819058,28.7495385 L18.956174,30.6328938 C18.287443,31.3016247 17.5027195,31.7519878 16.6019799,31.9839965 C15.7012403,32.2160052 14.8005142,32.2160052 13.8997745,31.9839965 C12.9990349,31.7519878 12.2143114,31.3016247 11.5455805,30.6328938 C10.8768495,29.9641629 10.4196628,29.1794393 10.1740065,28.2786997 Z M16.1311411,24.5938742 C16.1311411,24.1980947 16.2710266,23.8603224 16.5508018,23.5805472 C16.830577,23.300772 17.1683493,23.1608865 17.5641288,23.1608865 C17.9599083,23.1608865 18.3010925,23.3041838 18.5876914,23.5907828 C19.0380612,24.0548002 19.5907795,24.2868054 20.2458629,24.2868054 C20.9009463,24.2868054 21.4604883,24.0548002 21.9245056,23.5907828 L24.6062398,20.8885774 C25.0702571,20.4245601 25.3022624,19.8718418 25.3022624,19.230406 C25.3022624,18.5889702 25.073669,18.0362519 24.6164754,17.5722345 C24.1592818,17.1082171 23.6031517,16.8762119 22.9480683,16.8762119 C22.2929849,16.8762119 21.7334429,17.1082171 21.2694256,17.5722345 L20.7167017,18.1044871 C19.6658388,17.6131745 18.5467549,17.3743456 17.3594163,17.3879932 L19.2223003,15.5251092 C19.9046788,14.8563783 20.696226,14.4060152 21.5969656,14.1740065 C22.4977052,13.9419978 23.3916077,13.9419978 24.2786997,14.1740065 C25.1657918,14.4060152 25.9471034,14.8563783 26.6226582,15.5251092 C27.2982129,16.1938401 27.7588115,16.9785637 28.0044677,17.8793033 C28.250124,18.7800429 28.250124,19.680769 28.0044677,20.5815087 C27.7588115,21.4822483 27.3016247,22.2669718 26.6328938,22.9357027 L23.9511597,25.6174369 C23.2824287,26.2861678 22.4977052,26.7433545 21.5969656,26.9890108 C20.696226,27.2346671 19.7954999,27.2346671 18.8947602,26.9890108 C17.9940206,26.7433545 17.2161208,26.2861678 16.5610374,25.6174369 C16.2744384,25.3308379 16.1311411,24.9896537 16.1311411,24.5938742 Z" id="link-4---fontello" fill="#DDE3E9"></path>
                                <g id="Text-Stuff" transform="translate(35.000000, 14.100000)" fill="#DDE3E9">
                                    <rect id="Label" x="0.425833283" y="0" width="113.792539" height="7.05" rx="3"></rect>
                                    <rect id="Label" x="0.425833283" y="11.75" width="76.3812936" height="7.05" rx="3"></rect>
                                </g>
                            </g>
                            <g id="Row-Copy-4" transform="translate(0.000000, 55.000000)">
                                <rect id="Container" fill="#DDE3E9" x="0" y="3" width="197" height="58" rx="4"></rect>
                                <rect id="Container-Copy-2" fill="#FFFFFF" x="3" y="0" width="197" height="58" rx="4"></rect>
                                <path d="M45.5688,25.7999997 L40.1431,25.7999997 L40.1431,15.0612997 L45.4239,15.0612997 C46.3791714,15.0612997 47.127814,15.3215804 47.66985,15.8421497 C48.211886,16.362719 48.4829,17.0147625 48.4829,17.7982997 C48.4829,18.4423029 48.3031185,18.9870142 47.94355,19.4324497 C47.5839815,19.8778853 47.141236,20.1542658 46.6153,20.2615997 C47.1949029,20.3474668 47.685948,20.6453138 48.08845,21.1551497 C48.490952,21.6649856 48.6922,22.2472631 48.6922,22.9019997 C48.6922,23.7606707 48.4158194,24.4583304 47.86305,24.9949997 C47.3102806,25.5316691 46.5455382,25.7999997 45.5688,25.7999997 Z M45.0375,19.5048997 C45.509769,19.5048997 45.8800653,19.376101 46.1484,19.1184997 C46.4167347,18.8608984 46.5509,18.5281684 46.5509,18.1202997 C46.5509,17.7016976 46.4167347,17.363601 46.1484,17.1059997 C45.8800653,16.8483984 45.509769,16.7195997 45.0375,16.7195997 L42.0268,16.7195997 L42.0268,19.5048997 L45.0375,19.5048997 Z M45.118,24.1416997 C45.6332026,24.1416997 46.0356986,24.0102177 46.3255,23.7472497 C46.6153014,23.4842817 46.7602,23.1166687 46.7602,22.6443997 C46.7602,22.2257976 46.6153014,21.8742845 46.3255,21.5898497 C46.0356986,21.305415 45.6332026,21.1631997 45.118,21.1631997 L42.0268,21.1631997 L42.0268,24.1416997 L45.118,24.1416997 Z M52.1107667,25.7999997 L50.4202667,25.7999997 L50.4202667,18.0236997 L52.1107667,18.0236997 L52.1107667,19.1667997 C52.4113015,18.7803978 52.7869644,18.4637676 53.2377667,18.2168997 C53.688569,17.9700318 54.1554643,17.8465997 54.6384667,17.8465997 L54.6384667,19.5209997 C54.4881993,19.4887996 54.3111011,19.4726997 54.1071667,19.4726997 C53.7529649,19.4726997 53.3746187,19.5773487 52.9721167,19.7866497 C52.5696147,19.9959508 52.2825009,20.234765 52.1107667,20.5030997 L52.1107667,25.7999997 Z M62.3396334,25.7999997 L60.6491334,25.7999997 L60.6491334,24.9627997 C60.0480637,25.6497365 59.2108721,25.9931997 58.1375334,25.9931997 C57.4291299,25.9931997 56.8012361,25.7651187 56.2538334,25.3089497 C55.7064307,24.8527808 55.4327334,24.2222037 55.4327334,23.4171997 C55.4327334,22.5907289 55.7037474,21.9628352 56.2457834,21.5334997 C56.7878194,21.1041642 57.4183965,20.8894997 58.1375334,20.8894997 C59.2430723,20.8894997 60.0802639,21.2222297 60.6491334,21.8876997 L60.6491334,20.7284997 C60.6491334,20.2776975 60.4827684,19.923501 60.1500334,19.6658997 C59.8172984,19.4082984 59.3772361,19.2794997 58.8298334,19.2794997 C57.9604291,19.2794997 57.1930034,19.6068631 56.5275334,20.2615997 L55.8352334,19.0862997 C56.7153711,18.2490955 57.8047936,17.8304997 59.1035334,17.8304997 C60.0588048,17.8304997 60.8369637,18.0558975 61.4380334,18.5066997 C62.0391031,18.957502 62.3396334,19.6712615 62.3396334,20.6479997 L62.3396334,25.7999997 Z M58.7976334,24.8339997 C59.645571,24.8339997 60.2627315,24.5656691 60.6491334,24.0289997 L60.6491334,22.8536997 C60.2627315,22.3170304 59.645571,22.0486997 58.7976334,22.0486997 C58.314631,22.0486997 57.9175016,22.1774984 57.6062334,22.4350997 C57.2949652,22.692701 57.1393334,23.0307976 57.1393334,23.4493997 C57.1393334,23.8680018 57.2949652,24.2034151 57.6062334,24.4556497 C57.9175016,24.7078843 58.314631,24.8339997 58.7976334,24.8339997 Z M71.3610001,25.7999997 L69.6705001,25.7999997 L69.6705001,20.9377997 C69.6705001,19.864461 69.1499386,19.3277997 68.1088001,19.3277997 C67.7009314,19.3277997 67.3199019,19.4297654 66.9657001,19.6336997 C66.6114983,19.8376341 66.3270678,20.0844983 66.1124001,20.3742997 L66.1124001,25.7999997 L64.4219001,25.7999997 L64.4219001,18.0236997 L66.1124001,18.0236997 L66.1124001,19.0862997 C66.4022015,18.7428313 66.7885977,18.4476676 67.2716001,18.2007997 C67.7546025,17.9539318 68.2805306,17.8304997 68.8494001,17.8304997 C69.6758709,17.8304997 70.3010813,18.0451642 70.7250501,18.4744997 C71.1490189,18.9038352 71.3610001,19.5209957 71.3610001,20.3259997 L71.3610001,25.7999997 Z M80.6077668,25.7999997 L78.9172668,25.7999997 L78.9172668,24.7373997 C78.2732636,25.5746039 77.4414386,25.9931997 76.4217668,25.9931997 C75.402095,25.9931997 74.57027,25.62827 73.9262668,24.8983997 C73.2822636,24.1685294 72.9602668,23.175706 72.9602668,21.9198997 C72.9602668,20.6748268 73.2822636,19.6820034 73.9262668,18.9413997 C74.57027,18.200796 75.402095,17.8304997 76.4217668,17.8304997 C77.4414386,17.8304997 78.2732636,18.2544621 78.9172668,19.1023997 L78.9172668,15.0612997 L80.6077668,15.0612997 L80.6077668,25.7999997 Z M76.9047668,24.4958997 C77.3019021,24.4958997 77.6882983,24.3993007 78.0639668,24.2060997 C78.4396353,24.0128987 78.7240658,23.7660345 78.9172668,23.4654997 L78.9172668,20.3742997 C78.7240658,20.0737649 78.4396353,19.8242174 78.0639668,19.6256497 C77.6882983,19.4270821 77.3019021,19.3277997 76.9047668,19.3277997 C76.2392968,19.3277997 75.7080021,19.5692973 75.3108668,20.0522997 C74.9137315,20.5353021 74.7151668,21.1578292 74.7151668,21.9198997 C74.7151668,22.6819702 74.9137315,23.301814 75.3108668,23.7794497 C75.7080021,24.2570854 76.2392968,24.4958997 76.9047668,24.4958997 Z M84.3483335,25.6550997 C84.1229324,25.8697675 83.8599683,25.9770997 83.5594335,25.9770997 C83.2588987,25.9770997 82.9959346,25.8670841 82.7705335,25.6470497 C82.5451324,25.4270153 82.4324335,25.1613679 82.4324335,24.8500997 C82.4324335,24.5388315 82.5451324,24.2731841 82.7705335,24.0531497 C82.9959346,23.8331153 83.2588987,23.7230997 83.5594335,23.7230997 C83.8599683,23.7230997 84.1229324,23.8331153 84.3483335,24.0531497 C84.5737346,24.2731841 84.6864335,24.5388315 84.6864335,24.8500997 C84.6864335,25.1613679 84.5737346,25.4296986 84.3483335,25.6550997 Z M88.2177002,25.7999997 L86.5272002,25.7999997 L86.5272002,15.0612997 L88.2177002,15.0612997 L88.2177002,25.7999997 Z M91.1371669,17.0737997 C90.8580988,17.0737997 90.6139179,16.9718341 90.4046169,16.7678997 C90.1953159,16.5639654 90.0906669,16.3171012 90.0906669,16.0272997 C90.0906669,15.7374983 90.1953159,15.4906341 90.4046169,15.2866997 C90.6139179,15.0827654 90.8580988,14.9807997 91.1371669,14.9807997 C91.4269683,14.9807997 91.6738325,15.0827654 91.8777669,15.2866997 C92.0817013,15.4906341 92.1836669,15.7374983 92.1836669,16.0272997 C92.1836669,16.3171012 92.0817013,16.5639654 91.8777669,16.7678997 C91.6738325,16.9718341 91.4269683,17.0737997 91.1371669,17.0737997 Z M91.9904669,25.7999997 L90.2999669,25.7999997 L90.2999669,18.0236997 L91.9904669,18.0236997 L91.9904669,25.7999997 Z M101.011834,25.7999997 L99.3213336,25.7999997 L99.3213336,20.9377997 C99.3213336,19.864461 98.8007721,19.3277997 97.7596336,19.3277997 C97.3517649,19.3277997 96.9707354,19.4297654 96.6165336,19.6336997 C96.2623318,19.8376341 95.9779013,20.0844983 95.7632336,20.3742997 L95.7632336,25.7999997 L94.0727336,25.7999997 L94.0727336,18.0236997 L95.7632336,18.0236997 L95.7632336,19.0862997 C96.053035,18.7428313 96.4394312,18.4476676 96.9224336,18.2007997 C97.405436,17.9539318 97.9313641,17.8304997 98.5002336,17.8304997 C99.3267044,17.8304997 99.9519148,18.0451642 100.375884,18.4744997 C100.799852,18.9038352 101.011834,19.5209957 101.011834,20.3259997 L101.011834,25.7999997 Z M110.3713,25.7999997 L108.2461,25.7999997 L105.8633,22.5960997 L104.7846,23.7069997 L104.7846,25.7999997 L103.0941,25.7999997 L103.0941,15.0612997 L104.7846,15.0612997 L104.7846,21.7749997 L108.2139,18.0236997 L110.3069,18.0236997 L107.0708,21.5495997 L110.3713,25.7999997 Z M111.616367,26.1219997 L110.360567,26.1219997 L114.176267,14.7392997 L115.432067,14.7392997 L111.616367,26.1219997 Z M125.210134,25.7999997 L122.891734,25.7999997 L119.285334,21.2758997 L118.351534,22.3706997 L118.351534,25.7999997 L116.467834,25.7999997 L116.467834,15.0612997 L118.351534,15.0612997 L118.351534,20.1810997 L122.553634,15.0612997 L124.888134,15.0612997 L120.525034,20.1327997 L125.210134,25.7999997 Z M129.4176,25.9931997 C128.236928,25.9931997 127.262888,25.6148535 126.49545,24.8581497 C125.728013,24.1014459 125.3443,23.1166724 125.3443,21.9037997 C125.3443,20.7660607 125.71728,19.8027537 126.46325,19.0138497 C127.209221,18.2249458 128.151061,17.8304997 129.2888,17.8304997 C130.437273,17.8304997 131.363014,18.2276291 132.06605,19.0218997 C132.769087,19.8161704 133.1206,20.8304602 133.1206,22.0647997 L133.1206,22.4672997 L127.1153,22.4672997 C127.179701,23.0791028 127.431932,23.588931 127.872,23.9967997 C128.312069,24.4046684 128.886297,24.6085997 129.5947,24.6085997 C129.991836,24.6085997 130.391648,24.5334671 130.79415,24.3831997 C131.196652,24.2329323 131.532066,24.0236344 131.8004,23.7552997 L132.5732,24.8661997 C131.789663,25.6175368 130.737807,25.9931997 129.4176,25.9931997 Z M131.4784,21.2758997 C131.456934,20.7392304 131.261052,20.2616018 130.89075,19.8429997 C130.520449,19.4243976 129.986471,19.2150997 129.2888,19.2150997 C128.62333,19.2150997 128.102769,19.4217143 127.7271,19.8349497 C127.351432,20.2481851 127.142134,20.728497 127.0992,21.2758997 L131.4784,21.2758997 Z M134.349567,28.8428997 L134.607167,27.3294997 C134.800368,27.4153668 135.015033,27.4582997 135.251167,27.4582997 C135.79857,27.4582997 136.168866,27.232902 136.362067,26.7820997 L136.748467,25.8965997 L133.560667,18.0236997 L135.363867,18.0236997 L137.633967,23.8518997 L139.904067,18.0236997 L141.723367,18.0236997 L137.972067,27.2006997 C137.510531,28.3491721 136.619674,28.9341329 135.299467,28.9555997 C134.945265,28.9555997 134.628635,28.9180334 134.349567,28.8428997 Z M151.227734,25.7999997 L149.456734,25.7999997 L147.653534,20.1005997 L145.850334,25.7999997 L144.079334,25.7999997 L141.664334,18.0236997 L143.419234,18.0236997 L145.061434,23.6747997 L146.912934,18.0236997 L148.394134,18.0236997 L150.245634,23.6747997 L151.887834,18.0236997 L153.642734,18.0236997 L151.227734,25.7999997 Z M158.2205,25.9931997 C157.018361,25.9931997 156.052371,25.5987537 155.3225,24.8098497 C154.59263,24.0209458 154.2277,23.0522721 154.2277,21.9037997 C154.2277,20.7553273 154.59263,19.789337 155.3225,19.0057997 C156.052371,18.2222625 157.018361,17.8304997 158.2205,17.8304997 C159.433373,17.8304997 160.40473,18.2222625 161.1346,19.0057997 C161.864471,19.789337 162.2294,20.7553273 162.2294,21.9037997 C162.2294,23.0630055 161.864471,24.0343625 161.1346,24.8178997 C160.40473,25.601437 159.433373,25.9931997 158.2205,25.9931997 Z M158.220501,24.4958997 C158.918171,24.4958997 159.468248,24.2463522 159.870751,23.7472497 C160.273253,23.2481472 160.474501,22.63367 160.474501,21.9037997 C160.474501,21.1846628 160.273253,20.5755522 159.870751,20.0764497 C159.468248,19.5773472 158.918171,19.3277997 158.220501,19.3277997 C157.533564,19.3277997 156.988853,19.5773472 156.586351,20.0764497 C156.183848,20.5755522 155.982601,21.1846628 155.9826,21.9037997 C155.982601,22.63367 156.183848,23.2481472 156.586351,23.7472497 C156.988853,24.2463522 157.533564,24.4958997 158.220501,24.4958997 Z M165.519167,25.7999997 L163.828667,25.7999997 L163.828667,18.0236997 L165.519167,18.0236997 L165.519167,19.1667997 C165.819702,18.7803978 166.195365,18.4637676 166.646167,18.2168997 C167.096969,17.9700318 167.563865,17.8465997 168.046867,17.8465997 L168.046867,19.5209997 C167.8966,19.4887996 167.719502,19.4726997 167.515567,19.4726997 C167.161365,19.4726997 166.783019,19.5773487 166.380517,19.7866497 C165.978015,19.9959508 165.690901,20.234765 165.519167,20.5030997 L165.519167,25.7999997 Z M176.472534,25.7999997 L174.782034,25.7999997 L174.782034,24.7373997 C174.138031,25.5746039 173.306206,25.9931997 172.286534,25.9931997 C171.266862,25.9931997 170.435037,25.62827 169.791034,24.8983997 C169.147031,24.1685294 168.825034,23.175706 168.825034,21.9198997 C168.825034,20.6748268 169.147031,19.6820034 169.791034,18.9413997 C170.435037,18.200796 171.266862,17.8304997 172.286534,17.8304997 C173.306206,17.8304997 174.138031,18.2544621 174.782034,19.1023997 L174.782034,15.0612997 L176.472534,15.0612997 L176.472534,25.7999997 Z M172.769534,24.4958997 C173.166669,24.4958997 173.553065,24.3993007 173.928734,24.2060997 C174.304402,24.0128987 174.588833,23.7660345 174.782034,23.4654997 L174.782034,20.3742997 C174.588833,20.0737649 174.304402,19.8242174 173.928734,19.6256497 C173.553065,19.4270821 173.166669,19.3277997 172.769534,19.3277997 C172.104064,19.3277997 171.572769,19.5692973 171.175634,20.0522997 C170.778499,20.5353021 170.579934,21.1578292 170.579934,21.9198997 C170.579934,22.6819702 170.778499,23.301814 171.175634,23.7794497 C171.572769,24.2570854 172.104064,24.4958997 172.769534,24.4958997 Z" id="Brand.link/Keyword" fill="#2180C1"></path>
                                <path d="M10.2200348,34.2998867 C9.92665505,33.2085623 9.92665505,32.1172542 10.2200348,31.0259298 C10.5134146,29.9346054 11.0915367,28.9838446 11.9544185,28.1736189 L15.3455267,24.9244648 C16.1911508,24.1142391 17.18345,23.5603176 18.3224539,23.2626837 C19.4614577,22.9650497 20.5918159,22.9650497 21.7135621,23.2626837 C22.8353084,23.5603176 23.8362362,24.1142391 24.7163756,24.9244648 C25.0615283,25.2551691 25.234102,25.6602759 25.234102,26.1397972 C25.234102,26.6193186 25.0615283,27.0326928 24.7163756,27.3799324 C24.3712229,27.727172 23.9397885,27.8925217 23.4220594,27.8759865 C22.9043304,27.8594513 22.4815247,27.6941016 22.1536296,27.3799324 C21.5496124,26.817735 20.84206,26.5366405 20.0309512,26.5366405 C19.2198423,26.5366405 18.5209186,26.817735 17.934159,27.3799324 L14.5171644,30.6290866 C13.9476625,31.191284 13.6629158,31.8692178 13.6629158,32.6629082 C13.6629158,33.4565987 13.9519768,34.1303987 14.5301076,34.6843286 C15.1082383,35.2382584 15.8114764,35.5152191 16.6398429,35.5152191 C17.4682093,35.5152191 18.1671331,35.2423921 18.736635,34.6967299 L19.4355657,34.0022542 C20.7816612,34.6305925 22.1967661,34.9199545 23.6809227,34.8703488 L21.3252673,37.1521975 C20.4796432,37.9624232 19.4873441,38.5080773 18.3483402,38.789176 C17.2093363,39.0702747 16.0703495,39.0702747 14.9313456,38.789176 C13.7923417,38.5080773 12.8000426,37.9624232 11.9544185,37.1521975 C11.1087944,36.3419718 10.5306723,35.3912111 10.2200348,34.2998867 Z M17.7529548,29.8354 C17.7529548,29.3558787 17.9298429,28.9466382 18.2836244,28.6076662 C18.6374059,28.2686943 19.0645259,28.0992108 19.5649973,28.0992108 C20.0654688,28.0992108 20.4969032,28.272828 20.8593135,28.6200676 C21.4288154,29.182265 22.1277392,29.4633595 22.9561056,29.4633595 C23.7844721,29.4633595 24.4920245,29.182265 25.0787841,28.6200676 L28.4698924,25.3461107 C29.0566519,24.7839133 29.3500273,24.114247 29.3500273,23.3370918 C29.3500273,22.5599365 29.0609663,21.8902702 28.4828355,21.3280728 C27.9047048,20.7658754 27.2014667,20.4847809 26.3731002,20.4847809 C25.5447338,20.4847809 24.8371813,20.7658754 24.2504218,21.3280728 L23.551491,21.9729431 C22.2226532,21.3776752 20.8075483,21.0883132 19.3061341,21.1048485 L21.6617895,18.8478025 C22.5246712,18.0375768 23.525599,17.4919227 24.6646029,17.210824 C25.8036068,16.9297253 26.9339649,16.9297253 28.0557112,17.210824 C29.1774575,17.4919227 30.1654422,18.0375768 31.0196951,18.8478025 C31.8739481,19.6580282 32.4563845,20.6087889 32.7670219,21.7001133 C33.0776594,22.7914377 33.0776594,23.8827458 32.7670219,24.9740702 C32.4563845,26.0653946 31.8782624,27.0161554 31.0326383,27.8263811 L27.64153,31.0755352 C26.7959059,31.8857609 25.8036068,32.4396824 24.6646029,32.7373163 C23.525599,33.0349503 22.3866122,33.0349503 21.2476083,32.7373163 C20.1086044,32.4396824 19.124934,31.8857609 18.2965675,31.0755352 C17.9341572,30.7282956 17.7529548,30.3149214 17.7529548,29.8354 Z" id="link-4---fontello" fill="#2C96DF"></path>
                                <g id="Text-Stuff" transform="translate(38.000000, 18.000000)" fill="#2C96DF">
                                    <rect id="Label" x="1.56654341" y="14.2236842" width="101.62033" height="8.53421053" rx="3"></rect>
                                </g>
                            </g>
                            <g id="Row-Copy-5">
                                <rect id="Container" fill="#FFFFFF" x="0" y="0" width="159" height="47" rx="4"></rect>
                                <path d="M10.1740065,28.2786997 C9.94199783,27.3779601 9.94199783,26.477234 10.1740065,25.5764943 C10.4060152,24.6757547 10.863202,23.8910312 11.5455805,23.2223003 L14.2273146,20.5405661 C14.8960455,19.8718352 15.680769,19.4146485 16.5815087,19.1689922 C17.4822483,18.9233359 18.3761507,18.9233359 19.2632428,19.1689922 C20.1503348,19.4146485 20.941882,19.8718352 21.6379081,20.5405661 C21.9108595,20.8135176 22.0473332,21.147878 22.0473332,21.5436575 C22.0473332,21.9394371 21.9108595,22.2806212 21.6379081,22.5672202 C21.3649567,22.8538192 21.0237726,22.9902928 20.6143455,22.9766452 C20.2049184,22.9629977 19.8705579,22.826524 19.6112541,22.5672202 C19.1335891,22.1032028 18.5740471,21.8711976 17.9326113,21.8711976 C17.2911755,21.8711976 16.7384572,22.1032028 16.2744399,22.5672202 L13.5722345,25.2489543 C13.1218647,25.7129717 12.8966831,26.2725137 12.8966831,26.927597 C12.8966831,27.5826804 13.1252765,28.1388105 13.5824701,28.5960041 C14.0396637,29.0531977 14.5957939,29.2817911 15.2508772,29.2817911 C15.9059606,29.2817911 16.4586789,29.0566096 16.9090487,28.6062398 L17.4617725,28.0330447 C18.526283,28.5516523 19.645367,28.7904812 20.819058,28.7495385 L18.956174,30.6328938 C18.287443,31.3016247 17.5027195,31.7519878 16.6019799,31.9839965 C15.7012403,32.2160052 14.8005142,32.2160052 13.8997745,31.9839965 C12.9990349,31.7519878 12.2143114,31.3016247 11.5455805,30.6328938 C10.8768495,29.9641629 10.4196628,29.1794393 10.1740065,28.2786997 Z M16.1311411,24.5938742 C16.1311411,24.1980947 16.2710266,23.8603224 16.5508018,23.5805472 C16.830577,23.300772 17.1683493,23.1608865 17.5641288,23.1608865 C17.9599083,23.1608865 18.3010925,23.3041838 18.5876914,23.5907828 C19.0380612,24.0548002 19.5907795,24.2868054 20.2458629,24.2868054 C20.9009463,24.2868054 21.4604883,24.0548002 21.9245056,23.5907828 L24.6062398,20.8885774 C25.0702571,20.4245601 25.3022624,19.8718418 25.3022624,19.230406 C25.3022624,18.5889702 25.073669,18.0362519 24.6164754,17.5722345 C24.1592818,17.1082171 23.6031517,16.8762119 22.9480683,16.8762119 C22.2929849,16.8762119 21.7334429,17.1082171 21.2694256,17.5722345 L20.7167017,18.1044871 C19.6658388,17.6131745 18.5467549,17.3743456 17.3594163,17.3879932 L19.2223003,15.5251092 C19.9046788,14.8563783 20.696226,14.4060152 21.5969656,14.1740065 C22.4977052,13.9419978 23.3916077,13.9419978 24.2786997,14.1740065 C25.1657918,14.4060152 25.9471034,14.8563783 26.6226582,15.5251092 C27.2982129,16.1938401 27.7588115,16.9785637 28.0044677,17.8793033 C28.250124,18.7800429 28.250124,19.680769 28.0044677,20.5815087 C27.7588115,21.4822483 27.3016247,22.2669718 26.6328938,22.9357027 L23.9511597,25.6174369 C23.2824287,26.2861678 22.4977052,26.7433545 21.5969656,26.9890108 C20.696226,27.2346671 19.7954999,27.2346671 18.8947602,26.9890108 C17.9940206,26.7433545 17.2161208,26.2861678 16.5610374,25.6174369 C16.2744384,25.3308379 16.1311411,24.9896537 16.1311411,24.5938742 Z" id="link-4---fontello" fill="#DDE3E9"></path>
                                <g id="Text-Stuff" transform="translate(35.000000, 14.100000)" fill="#DDE3E9">
                                    <rect id="Label" x="0.425833283" y="0" width="113.792539" height="7.05" rx="3"></rect>
                                    <rect id="Label" x="0.425833283" y="11.75" width="76.3812936" height="7.05" rx="3"></rect>
                                </g>
                            </g>
                        </g>
                    </g>
                </g>
                <g id="Plant-Left" opacity="0.5" transform="translate(456.000000, 94.000000)" fill="#DDE3E9">
                    <path d="M119.987591,74.7903951 C122.82172,70.7546461 128.081052,60.5051684 132.070036,59.0630741 C134.63931,58.1342321 133.890201,67.7423913 133.92193,69.5744565 C134.045492,76.6624281 133.354534,83.7054564 132.501257,90.7339181 C130.963993,103.40972 125.937276,114.698485 119.04276,125.486897 C115.494988,131.038191 111.333733,136.656797 105.5702,140.120539 C102.917241,141.715662 99.7250642,141.982738 97.1051,143.357067 C94.0537693,144.956964 95.715518,143.663615 94.3403872,146.839027 C92.4307269,151.247663 91.8199087,156.935273 90.936339,161.639444 C86.8794197,183.234144 77.0576943,297.389363 78.7604049,319.355302 C78.9116328,321.302266 76.1932267,321.767852 76.0575224,319.391016 C75.3362301,306.788364 81.5777367,219.515195 84.7266826,190.97436 C87.8756285,162.433524 91.0622179,137.219123 94.2574053,127.344887 C98.1336437,115.365341 105.134352,100.959012 110.961953,89.787566 C113.66883,84.5975647 116.619379,79.5863559 119.987591,74.7903951 Z" id="Leaf"></path>
                    <path d="M140.800995,215.535289 C148.184481,210.124105 156.176549,220.336623 149.495255,225.748639 C145.801678,228.740073 141.940258,227.675938 139.766384,225.183018 C138.355193,226.900179 137.034366,228.695636 135.765223,230.212175 C131.898468,234.833354 128.2438,239.564831 124.750996,244.406631 C117.495237,254.465352 111.277182,265.092177 104.775764,275.524681 C98.3597136,285.820996 91.9949667,296.170047 86.1795453,306.727227 C81.2530578,315.671719 74.6866759,326.194195 73,336 C75.5591345,315.203586 85.2698905,295.214549 96.8337071,276.880917 C108.303428,258.697894 121.466266,238.840015 139.22565,224.490371 C137.418179,221.837012 137.368004,218.049544 140.800995,215.535289 Z" id="Leaf"></path>
                    <path d="M1.2867517,165.020709 C5.40234945,165.826196 12.1271898,175.143387 15.5196696,178.693309 C19.5514039,182.911894 23.2091874,187.408304 26.6570789,192.119424 C34.0796831,202.259914 40.7178981,213.04136 46.3626388,224.284521 C55.5650442,242.613122 62.9373676,261.428065 68.2877781,281.386885 C71.5629583,293.6044 73.683502,306.267379 74.9402503,318.841929 C75.1775926,321.213414 77.6620461,339.497112 74.0821007,339.989908 C70.8623173,340.43364 71.8567882,326.106721 71.7014569,324.157907 C69.9456058,302.171641 64.6855735,280.779188 57.3689169,260.056031 C55.7752442,255.541687 54.2946659,250.012423 51.7460072,245.94995 C49.9106159,243.023815 51.732845,244.044252 48.5073862,242.936851 C45.7378157,241.985403 42.5822843,242.217895 39.7461815,241.053242 C33.5850284,238.524676 28.6517122,233.615976 24.3273228,228.6784 C15.9235186,219.082656 9.26393121,208.701562 5.79256967,196.406032 C3.86689827,189.588562 2.09730456,182.731437 1.11528871,175.703157 C0.861258306,173.886553 -1.36407375,164.501901 1.2867517,165.020709 Z" id="Leaf"></path>
                    <path d="M17.4184601,9.24707886 C32.8575608,36.1970192 45.5447813,65.8008221 53.737011,95.7849973 C58.7005245,113.952084 62.1716584,132.594185 65.6205063,151.101622 C70.9604253,179.758081 76.0113762,208.412328 77.4481325,237.577811 C78.8936016,266.912316 81.7519192,300.746221 72.2086721,329 C76.9755718,300.314737 72.4371597,269.781508 71.6335911,240.918219 C71.249585,227.139352 70.1368065,213.495196 68.6770492,199.796846 C67.2605001,186.50871 64.9462597,173.283849 62.7911804,160.100157 C61.7414014,153.679461 60.6388968,147.268426 59.5163941,140.860897 C59.1812886,138.949203 59.0397329,133.27654 57.8349258,131.970578 C56.6223158,130.656016 50.4354196,130.120114 48.4930207,129.155568 C44.5816967,127.212853 40.9025685,124.453367 37.6464444,121.537617 C31.404412,115.948198 25.974158,108.644943 21.688167,101.445594 C11.7714957,84.7874329 7.80681528,64.4584109 8.00720626,45.1661411 C8.0457088,41.4204541 14.0305779,1.08539751 11.6269582,0.529950412 C11.7716765,0.35935792 11.9085689,0.183216041 12.037647,0 C13.8573931,3.06670104 15.6430912,6.15418471 17.4184601,9.24707886 Z" id="Leaf"></path>
                    <path d="M185.198003,106.620643 C185.43791,106.274812 186.999327,103.869659 186.213046,104.02337 C187.813942,103.710408 184.011115,106.675998 188,104.856326 C186.10605,106.643982 187.199109,108.966177 187.224389,111.372166 C187.265631,115.278425 186.611669,119.152652 185.875524,122.975097 C184.712298,129.017217 182.979407,134.891923 180.464146,140.51182 C174.982056,152.758854 165.673188,164.548862 154.621831,172.205619 C149.166082,175.986067 143.819205,177.27317 137.596919,179.013546 C133.66666,180.113055 133.354985,182.144917 131.268794,185.956537 C126.925501,193.895326 122.659558,201.805559 118.829159,210.012205 C114.255409,219.811803 109.815401,229.622202 105.627185,239.594309 C91.517835,273.184822 80.0341329,307.985096 74.0032435,344 C73.8555819,322.776527 78.7681911,300.918165 84.9649723,280.688665 C89.4789547,265.94991 95.355312,251.742197 101.623021,237.678313 C103.141814,234.271172 105.443406,229.888433 106.088388,226.126802 C106.540005,223.491216 105.15928,220.956556 104.527107,218.180171 C102.06255,207.368412 102.238946,195.255758 104.403194,184.38619 C106.789444,172.400429 113.690367,166.83743 125.364169,165.139724 C129.633513,164.518721 135.059958,164.746323 138.974736,162.927031 C143.239827,160.945881 144.999242,154.433868 147.424529,150.253667 C153.938768,139.024765 161.678626,128.255561 170.566122,118.79428 C173.026985,116.17433 175.673414,113.75725 178.48098,111.516912 C180.251429,110.103384 183.991453,108.361919 185.198003,106.620643 Z" id="Leaf"></path>
                    <path d="M56.7895766,321 L94.2104234,321 C96.9718472,321 99.2104234,323.238576 99.2104234,326 C99.2104234,326.243606 99.1926203,326.486887 99.1571562,326.727898 L97.0700663,340.91159 C95.6257563,350.727003 87.2042421,358 77.2831352,358 L73.7168648,358 C63.7957579,358 55.3742437,350.727003 53.9299337,340.91159 L51.8428438,326.727898 C51.440837,323.995893 53.3296739,321.455274 56.0616789,321.053267 C56.3026899,321.017803 56.5459704,321 56.7895766,321 Z" id="Base"></path>
                </g>
                <g id="Group-58" transform="translate(70.000000, 213.000000)">
                    <path d="M50.5,260 C22.6086335,260 0,257.985879 0,255.5 C0,253.014121 22.6086335,251 50.5,251 C78.3893339,251 101,253.014121 101,255.5 C101,257.985879 78.3893339,260 50.5,260" id="Fill-4" fill="#F5F6F8" opacity="0.886300223"></path>
                    <g id="Group-57" transform="translate(15.000000, 0.000000)">
                        <path d="M121.730455,65.009018 L143.463665,28.8741979 C144.032969,27.9276425 143.727146,26.6987959 142.78059,26.1294922 C142.525726,25.9762044 142.239882,25.8816872 141.943875,25.8528234 L113.298399,23.0595876 C112.509313,22.9826434 111.749271,23.3790758 111.360814,24.0702182 L91.9955006,58.524918 C91.4543011,59.4878183 91.7961572,60.707132 92.7590574,61.2483315 C92.9591379,61.360787 93.1770823,61.4379637 93.403345,61.4764815 L119.680924,65.9498376 C120.492632,66.0880185 121.306075,65.7146143 121.730455,65.009018 Z" id="Path-3" fill="#2B2444"></path>
                        <polygon id="Path-5" fill="url(#linearGradient-3)" points="113.496365 25.44526 141.098133 28.0654271 120.749656 61.5752218 96 56.9528146"></polygon>
                        <g id="Group-56">
                            <path d="M78.1414795,94.7260887 C78.1414795,94.7260887 93.4077808,108.794234 93.6632329,160.963774 C93.9166575,213.133315 75.6923836,247.751073 75.6923836,247.751073 L62.8447671,247.751073 C62.8447671,247.751073 83.9175342,182.244121 60.241589,138.800879 C60.241589,138.800879 52.3185205,189.409766 10.375726,228.122468 L0.230630137,217.359831 C0.230630137,217.359831 31.1626301,178.558065 31.4079452,130.038145 C31.4566027,120.427274 33.070411,115.563137 29.7211507,104.804548 L78.1414795,94.7260887" id="Fill-195" fill="#382E65"></path>
                            <path d="M21.4696438,44.3641532 L30.3983014,113.405347 L86.5693699,114.130008 L78.1779726,62.1224032 C78.1779726,62.1224032 105.941151,88.432871 118.050795,77.5244919 C130.158411,66.6161129 132.124986,55.7704839 132.124986,55.7704839 L125.529863,51.2443871 C125.529863,51.2443871 115.496274,70.3163387 106.377041,64.3186532 C96.1265205,57.5780887 73.2047671,30.0288145 51.5886575,33.4497016 C37.2691507,35.7167984 23.6795068,27.7192097 21.4696438,44.3641532" id="Fill-201" fill="#8355E1"></path>
                            <path d="M54.627726,3.41471774 L59.8016438,16.7501048 C60.9532055,19.7175726 59.4671233,23.0574919 56.4888767,24.1930645 L54.7290959,24.8650968 L55.5785753,34.6419516 L41.940274,35.8240806 L39.541863,8.24039516 L54.627726,3.41471774" id="Fill-202" fill="#E7BC93"></path>
                            <path d="M47.0918904,28.5896129 C47.0918904,28.5896129 52.3144658,24.051371 51.8724932,19.9969113 C51.8724932,19.9969113 44.1663562,16.7946371 46.2586301,14.5619516 C48.3488767,12.3272419 52.8050959,16.2744194 52.8050959,16.2744194 C52.8050959,16.2744194 49.7315616,10.3819919 50.4107397,8.72620161 C50.4107397,8.72620161 60.3956712,7.84770161 58.2689315,2.11316129 C58.2689315,2.11316129 55.2744658,-0.162032258 48.9611507,0.0282419355 C42.6458082,0.218516129 40.1054795,11.11475 40.1054795,11.11475 L47.0918904,28.5896129" id="Fill-203" fill="#2B2444"></path>
                            <path d="M49.9464658,0.722540323 C44.0609315,-0.84216129 37.4536438,0.623354839 32.7865753,4.53004839 C28.1195068,8.43471774 25.5203836,14.6753065 26.0353425,20.7337177 C26.3982466,24.9885726 28.1580274,29.427629 26.4935342,33.3626613 C25.6379726,35.3828065 23.9836164,36.9414355 22.3596712,38.421121 C17.617589,42.7447984 12.7112877,46.9996532 9.03358904,52.2585081 C5.35791781,57.5153387 2.97978082,64.0049032 3.99550685,70.3365806 C4.42734247,73.0267339 5.48564384,75.6500887 7.25150685,77.7289355 C8.18005479,78.822 9.29512329,79.7592016 10.110137,80.9352581 C13.029589,85.1435565 11.3894247,91.0218145 13.177589,95.817129 C15.4726027,101.972702 22.6962192,104.723581 29.2406575,105.385492 C38.22,106.294355 47.9008219,104.395661 54.5182466,98.2684274 C61.1356712,92.1411935 63.5989589,81.2226935 58.5020822,73.7858065 C55.98,70.1058226 51.6900274,66.8691371 52.1096986,62.4300806 C52.3712329,59.673129 54.4574247,57.4829516 55.6556164,54.9830726 C58.0580822,49.9833145 56.4665753,43.3965887 52.0448219,40.0404758 C50.4127671,38.7996452 48.4745753,37.9778226 46.9641644,36.5932742 C45.4537534,35.21075 44.4339726,32.9456774 45.3381918,31.1097339 C46.0356164,29.6948226 47.6656438,28.9317016 48.3955068,27.5370323 C49.4862466,25.4480645 48.1643836,22.921871 46.6235616,21.1365323 C45.0807123,19.3532177 43.1830685,17.5840726 42.9620822,15.2400565 C42.7938082,13.4567419 43.6513973,11.7564194 44.4866849,10.1714758 C46.1349589,7.04409677 47.7832329,3.91469355 49.4294795,0.787314516" id="Fill-204" fill="#2B2444"></path>
                        </g>
                        <path d="M126.275945,51.5277742 C126.275945,51.5277742 128.85074,42.8804194 129.406247,42.8864919 C131.013973,42.9067339 129.955671,47.4449758 129.955671,47.4449758 C129.955671,47.4449758 135.275562,39.7449435 136.404822,40.5303306 C137.100219,41.0100645 134.531507,45.5827177 134.531507,45.5827177 C134.531507,45.5827177 137.974027,42.3257903 138.983671,42.9148306 C139.968986,43.49375 136.076384,48.0664032 136.076384,48.0664032 C136.076384,48.0664032 138.787014,46.1171048 139.675014,46.7446048 C140.28526,47.1757581 129.769151,56.6672016 129.769151,56.6672016 L126.275945,51.5277742" id="Fill-190" fill="#E7BC93"></path>
                    </g>
                    <polyline id="Fill-191" fill="#F3D0A3" points="86.7305654 246 87 252.299161 82.1921378 253 82 246.05036 86.7305654 246"></polyline>
                    <path d="M82.3334338,252.784063 C82.3334338,252.784063 100.114585,249.519826 102.78801,251.822099 C105.45945,254.124372 82,256 82,256 L82.3334338,252.784063" id="Fill-192" fill="#382E65"></path>
                    <polyline id="Fill-193" fill="#F3D0A3" points="23 224.651824 17.8940516 228 15 224.609595 20.6839418 221 23 224.651824"></polyline>
                    <path d="M14.0173314,224 C14.0173314,224 26.5556508,237.98438 25.9808222,241.56517 C25.4080687,245.148013 11,225.412605 11,225.412605 L14.0173314,224" id="Fill-194" fill="#382E65"></path>
                </g>
                <g id="Group-62" transform="translate(294.000000, 169.000000)">
                    <polyline id="Fill-144" fill="#957867" points="75 157 70.8253641 241.319326 58.675957 297.614687 52.9767045 296.056436 57.740656 239.744076 48.2374662 181.728028 39.7874404 235.807839 21.016787 297.82812 16 298 24.993717 236.261149 22.5299974 161.111894 75 157"></polyline>
                    <path d="M93.5752648,15.5135451 L87.9543272,58.6071723 L60.8026636,84.527811 L36.4605158,84.8783955 L27.6259802,100.059084 L31.1731368,113.788427 C33.7691751,123.838518 32.8752383,134.459722 28.6323739,143.946238 L23,160.945819 L76.1806645,167 C77.9266051,127.067288 77.1108162,123.810245 70.5139817,101.108952 L101.912322,60.8803173 L102,14 L93.5752648,15.5135451" id="Fill-145" fill="#00CEE1"></path>
                    <path d="M71,14.0596389 C68.4099516,15.4909717 51.6607221,58.5799349 51.6607221,58.5799349 L52.626376,86.1373344 L37,89 L37.0018714,57.4220452 L64.2984368,9 L71,14.0596389" id="Fill-146" fill="#00CEE1"></path>
                    <path d="M56.8794291,58 L61.6402225,70.3447845 C62.7017004,73.0936914 61.3342781,76.1836352 58.5919716,77.2348532 L56.9727048,77.8569644 L57.7543555,86.9075578 L45.2050383,88 L43,62.4653342 L56.8794291,58" id="Fill-147" fill="#957867"></path>
                    <path d="M50.8102813,81 C50.8102813,81 55.9046485,76.8724791 55.4717163,73.1833116 C55.4717163,73.1833116 47.9596498,70.2695507 49.997792,68.2343385 C52.0359343,66.2028099 56.3810717,69.7943609 56.3810717,69.7943609 C56.3810717,69.7943609 53.3841525,64.4328199 54.0483774,62.9262103 C54.0483774,62.9262103 63.782434,62.1287017 61.7106852,56.9108228 C61.7106852,56.9108228 58.7888867,54.8387741 52.6329459,55.0100635 C46.4750282,55.1831946 44,65.0995591 44,65.0995591 L50.8102813,81" id="Fill-148" fill="#2B2444"></path>
                    <path d="M53.3983504,55.5727213 C47.870015,54.1191517 41.6596865,55.4805804 37.2743563,59.1098033 C32.8890262,62.7371458 30.446805,68.5345002 30.9325822,74.1626163 C31.2716738,78.1133921 32.9252214,82.240928 31.3631142,85.892716 C30.5592005,87.7712619 29.0028083,89.2191902 27.4788013,90.5937819 C23.0210809,94.612253 22.8839894,97.3486818 26.8768712,104.433283 C30.869753,111.517884 39.9800974,111.157568 44.7898288,108.126 C49.6260228,105.077753 54.7546417,107.172041 55.3700345,102 C55.9854273,96.8279593 56.4725339,94.0934914 55.3700345,92.0962425 C54.2274272,90.0263357 52.0153141,90.1800881 50.5960825,88.8957569 C49.178756,87.6114257 48.2186316,85.5072286 49.0701705,83.8016819 C49.7235885,82.4891443 51.2571206,81.7802235 51.9429237,80.4808489 C52.9678184,78.5421293 51.7238477,76.1934768 50.2760411,74.5368212 C48.8282344,72.8782851 47.0451462,71.2347925 46.8355953,69.0572588 C46.6774795,67.4006031 47.4852032,65.821045 48.2700669,64.3486711 C49.816934,61.4434124 51.3657061,58.5381537 52.9125732,55.6310145" id="Fill-149" fill="#2B2444"></path>
                    <polyline id="Fill-150" fill="#382E65" points="22.8346866 161 19 190.418641 47.5879218 195 48.811596 183.362251 50.4120782 194.718274 79 194.718274 75.9322507 167.073184 22.8346866 161"></polyline>
                    <path d="M69.5113719,14 C69.5113719,14 77.1495307,9.81613997 77.036776,9.28769421 C76.7082321,7.74606298 72.6412868,9.66118219 72.6412868,9.66118219 C72.6412868,9.66118219 78.8564035,3.03177055 77.8999326,2.10003724 C77.3147746,1.52987208 73.5083315,4.90119709 73.5083315,4.90119709 C73.5083315,4.90119709 75.9072849,0.95176037 75.156883,0.099492587 C74.4239774,-0.730922176 70.8722044,3.90986463 70.8722044,3.90986463 C70.8722044,3.90986463 72.1824918,0.921960798 71.4223696,0.19485122 C70.8994211,-0.305781604 64,11.6637135 64,11.6637135 L69.5113719,14" id="Fill-162" fill="#957867"></path>
                    <path d="M94.7942563,16.338607 C94.7942563,16.338607 91.6250484,8.84693844 92.036931,8.54437286 C93.2325347,7.66204092 95.1127025,11.4323341 95.1127025,11.4323341 C95.1127025,11.4323341 94.5196679,3.08007483 95.8125216,3.00035696 C96.6038701,2.95325094 97.3933118,7.58413482 97.3933118,7.58413482 C97.3933118,7.58413482 98.0187632,3.38988748 99.1113962,3.24132235 C100.173519,3.09819253 99.9866468,8.46827853 99.9866468,8.46827853 C99.9866468,8.46827853 100.839015,5.59481146 101.861094,5.54045836 C102.56282,5.50422296 100.377554,18 100.377554,18 L94.7942563,16.338607" id="Fill-163" fill="#957867"></path>
                    <path d="M41.4990476,304 C18.5809524,304 0,302.267045 0,300.128788 C0,299.804924 0.426666667,299.488636 1.23238095,299.1875 L24,298.827652 C26.5333333,298.988636 29.3257143,299.121212 31.6838095,299.121212 C34.032381,299.121212 35.9485714,298.99053 36.7485714,298.625 L52.527619,298.375 L52.4019048,299.573864 C52.4019048,299.573864 59.3257143,299.030303 65.0571429,298.176136 L76.1695238,298 C80.487619,298.609848 83,299.342803 83,300.128788 C83,302.267045 64.4209524,304 41.4990476,304" id="Fill-243" fill="#F5F6F8" opacity="0.886300223"></path>
                    <path d="M30.6626236,299 C28.3596132,299 25.6324619,298.860558 23.158307,298.691235 C22.2151517,298.625498 21.3092017,298.555777 20.4776624,298.488048 C17.875149,298.2749 16,298.077689 16,298.077689 L16.8315393,295 C16.8315393,295 16.8408406,295 16.857583,295 C17.1068588,295 19.1940782,295.003984 21.9082076,295.115538 C27.076029,295.330677 34.5189568,295.942231 35.858349,297.683267 C36.0276333,297.900398 36.0406552,298.085657 35.9215981,298.243028 C35.8564887,298.330677 35.7504535,298.408367 35.6090732,298.478088 C34.8277611,298.86255 32.9563327,299 30.6626236,299" id="Fill-257" fill="#3B3269"></path>
                    <path d="M52,299 L52.1247535,297.726358 L52.147436,297.511066 L52.3175545,295.780684 C52.3175545,295.780684 53.1568056,295.619718 54.4912906,295.394366 C55.8522384,295.162978 57.7254318,294.865191 59.744171,294.605634 C62.3205208,294.273642 65.1350365,294 67.4278555,294 C69.4938498,294 71.134548,294.221328 71.7980101,294.820926 C72.8206111,295.744467 69.8246357,296.60161 65.8759969,297.293763 C65.4469203,297.370221 65.0065025,297.444668 64.5585238,297.515091 C58.8708962,298.422535 52,299 52,299" id="Fill-258" fill="#3B3269"></path>
                </g>
                <g id="Group-64" transform="translate(424.000000, 157.000000)">
                    <polyline id="Fill-35" fill="#D9D1DF" points="64 290.531727 67.5475924 296 72 293.975904 68 288 64 290.531727"></polyline>
                    <path d="M83.815413,309.713698 C83.815413,309.713698 64.3436864,305.432911 61.2562498,307.624461 C58.1688132,309.813965 84,313 84,313 L83.815413,309.713698" id="Fill-36" fill="#382E65"></path>
                    <path d="M11.9836485,91.7860278 C11.9836485,91.7860278 12.1264518,81.9320539 11.5680271,81.7573929 C9.9481691,81.2510972 9.58156967,86.3273198 9.58156967,86.3273198 C9.58156967,86.3273198 6.67008812,76.5662036 5.29107747,77.015016 C4.44065204,77.2891674 5.576684,82.8960056 5.576684,82.8960056 C5.576684,82.8960056 3.15115985,78.3769294 1.95118612,78.6621353 C0.781051886,78.9407085 3.24280971,84.9786718 3.24280971,84.9786718 C3.24280971,84.9786718 1.14125714,82.0624969 0.0521158039,82.4250842 C-0.696002806,82.6749157 6.85765062,96 6.85765062,96 L11.9836485,91.7860278" id="Fill-37" fill="#E7BC93"></path>
                    <path d="M52.6957542,165.160494 C52.6957542,165.160494 21.9211383,202.233039 37.3084462,245.751476 C52.6957542,289.269912 63.1116104,293.887443 63.1116104,293.887443 L72.0257874,289.250392 C72.0257874,289.250392 54.8839776,248.479918 54.1429458,233.629645 C53.4716581,220.126241 77.130189,188.532269 77.130189,188.532269 L72.3352772,308.553362 L83.6861412,310 C83.6861412,310 113.996523,175.638319 110.757778,165.160494 C107.519033,154.684837 93.9995607,139.370425 52.6957542,165.160494" id="Fill-38" fill="#382E65"></path>
                    <path d="M45.5614796,115.055495 L52.2052411,166 L107,159.571273 L84.7948221,80 L68.3242822,82.6507073 L56.5946367,84.0239391 C49.9270081,84.8052231 45.7610962,86.0152339 40.9312422,90.6898803 L21.817952,112.605005 L12.3405026,89.7606094 L4,93.9434168 C4,93.9434168 10.8260201,135.534276 21.5684313,131.270947 C28.9108508,128.359086 45.5614796,115.055495 45.5614796,115.055495" id="Fill-39" fill="#2C96DF"></path>
                    <path d="M36.2615909,17 C36.2615909,17 48.3599008,47.6590416 49.972864,52.4989143 C51.5858273,57.3409584 85,80.4568335 85,80.4568335 L68.5208559,88 L36.2615909,58.0944066 L29,17 L36.2615909,17" id="Fill-40" fill="#2C96DF"></path>
                    <path d="M48.9446703,49 L44.2706029,64.8476509 C43.2263499,68.3765148 45.2974152,72.0665632 48.8814483,73.0766521 L50.9982951,73.6719599 L50.9982951,85 L60.7628232,85 C64.2073319,85 67,82.2448212 67,78.8513522 L67,53.0425049 L48.9446703,49" id="Fill-41" fill="#E7BC93"></path>
                    <path d="M58.6826591,74.723051 C56.9080633,73.4035324 54.2806278,70.9091601 54.3516978,67.7243421 C54.3516978,67.7243421 61.0904238,67.5292637 59.2878307,62.7684758 C58.1679402,59.8116144 54.3129323,62.15913 54.3129323,62.15913 C54.3129323,62.15913 55.8527818,56.2322559 54.9051822,54.3581889 C54.9051822,54.3581889 43.3315441,54.3428456 45.2052072,47.4011259 C45.2052072,47.4011259 48.4227388,44.4289212 55.7063346,44.01027 C62.9877768,43.5916188 67,56.1117019 67,56.1117019 L60.8621384,74.0194539 C60.5498612,74.9378563 59.4558143,75.2973265 58.6826591,74.723051" id="Fill-42" fill="#2B2444"></path>
                    <path d="M29.5832672,16 C29.5832672,16 23.6869794,8.72568662 24.0130414,8.25352024 C24.9619654,6.8791788 28.2267657,10.4457213 28.2267657,10.4457213 C28.2267657,10.4457213 24.7278696,1.36705782 26.0509289,0.852733724 C26.8639937,0.538658762 29.284377,5.42052193 29.284377,5.42052193 C29.284377,5.42052193 28.4943037,0.553413962 29.5832672,0.0306583207 C30.6471489,-0.479450006 32.3025406,5.54488718 32.3025406,5.54488718 C32.3025406,5.54488718 32.204304,2.07109163 33.2535547,1.67691701 C33.9746534,1.40289188 36,16 36,16 L29.5832672,16" id="Fill-43" fill="#E7BC93"></path>
                    <path d="M47.8606688,53.293617 C46.7304276,52.273734 45.6963317,51.3914369 45.1750106,49.9478766 C44.655826,48.5021324 45.3373893,44.6737494 46.6171898,43.8591534 C48.1063735,42.9091553 50.0079135,43.7521421 51.7449383,44.003291 C54.3515438,44.3811063 56.9346471,43.3437521 59.5497988,43.0532929 C62.1670871,42.7628337 65.3441546,43.6385791 66.1496385,46.200298 C66.3141537,46.7266188 66.4508937,47.3883416 66.9700782,47.5412148 C67.1922806,47.606732 67.429439,47.5521344 67.6580511,47.5302953 C69.6877849,47.333744 71.1107351,49.7644287 70.9932242,51.843505 C70.8778499,53.9225812 69.8159786,55.8160256 69.345935,57.8426882 C68.3161122,62.2803803 70.1279167,67.2422093 68.2263766,71.3676033 C66.7286467,74.6150679 62.006845,77.4847173 58.7507247,75.1479404 L62.9127472,56.3620015 L47.8606688,53.293617" id="Fill-53" fill="#2B2444"></path>
                    <path d="M71.7890912,294 C71.7890912,294 54.0421242,301.763515 53.0336768,305.347323 C52.0252295,308.931132 74,296.587838 74,296.587838 L71.7890912,294" id="Fill-54" fill="#382E65"></path>
                </g>
                <g id="Group-66" transform="translate(225.000000, 0.000000)">
                    <polyline id="Fill-120" fill="#E7BC93" points="57.7844523 197 58 202.399281 54.1537102 203 54 197.044964 57.7844523 197"></polyline>
                    <path d="M54.3175517,202.781715 C54.3175517,202.781715 71.25175,199.521163 73.7978339,201.821663 C76.3439177,204.122164 54,206 54,206 L54.3175517,202.781715" id="Fill-121" fill="#382E65"></path>
                    <polyline id="Fill-122" fill="#E7BC93" points="70 166.159475 66.9571227 171 63 169.288931 66.4338505 164 70 166.159475"></polyline>
                    <path d="M63.9460464,169 C63.9460464,169 80.0047598,175.383312 80.9662906,178.432757 C81.9278214,181.482201 62,171.24298 62,171.24298 L63.9460464,169" id="Fill-123" fill="#382E65"></path>
                    <path d="M68.815884,21.6970212 C70.5942799,21.785151 72.5262472,21.9557853 74.0107716,20.9807321 C75.9370511,19.715038 76.2878009,17.0130155 75.806231,14.7741433 C74.6553927,9.40947542 69.4927362,5.15674327 63.9489948,5.00485998 C56.4145118,4.79859872 49.8716077,11.2283247 42.3447085,10.8514291 C39.4723528,10.7070463 36.7630482,9.57260933 34.0082411,8.75881491 C25.9770206,6.38493532 15.6422278,7.64875431 11.6588486,14.9429025 C10.5914319,16.894884 10.0814229,19.1206305 8.90593739,21.0107337 C6.67958963,24.5958196 31.7129386,27.7635699 48.4258333,28.9086649 C56.7480833,29.4788693 62.8076363,28.9086649 62.8076363,28.9086649 C69.5097997,24.8303172 60.9571945,21.3051248 68.815884,21.6970212 Z" id="Fill-124" fill="#191847"></path>
                    <path d="M74.3733338,18.4143122 C74.1478383,17.2415782 73.5967416,15.9392698 73.1520716,14.8297533 C72.5787781,13.3994403 71.7111939,12.1098325 70.7564397,10.8944303 C68.958944,8.60618625 66.8026253,6.53984554 64.4218402,4.82483983 C60.0730413,1.69222165 54.5372309,-0.11468485 49.0934414,0.472110247 C46.3448664,0.768361858 43.6766996,1.69421949 41.4057222,3.23527014 C39.3539194,4.62762416 37.3803197,6.67726861 34.7234717,6.8245382 C31.8326023,6.98465106 29.1826633,4.73136931 26.8642055,3.3397288 C24.250134,1.77085105 21.4692194,0.627656613 18.4140059,0.183279198 C13.2958177,-0.560917405 8.48764905,0.966148337 4.96027689,4.67443078 C1.20667429,8.62059926 -1.52190889,14.4076376 0.943106269,19.6362787 C1.40130009,20.6082295 1.99076343,21.4276306 2.83673888,22.1067546 C3.61259611,22.7295109 4.79754973,23.3920813 5.11212618,24.3871499 C5.4462534,25.4448652 4.44813468,26.8093921 4.06108805,27.7637904 C3.50661031,29.1311714 3.05135645,30.566479 3.21320163,32.0527317 C3.47912162,34.4935253 5.216054,36.8235813 7.05015228,38.4278494 C8.9165902,40.0603728 11.2137333,40.996505 13.6672825,41.4280391 C15.305579,41.7161567 16.9798901,41.8751279 18.6449403,41.766959 C19.471512,41.7133026 20.2009177,41.5105215 21.0017647,41.349267 C21.7805619,41.1924363 22.215824,41.3750963 22.8765815,41.7522606 C25.9460538,43.5046545 29.2464606,44.1826369 32.7907375,43.922061 C35.7820067,43.7020129 39.2297058,43.0618468 41.6698782,41.2519435 C44.3797926,39.2418278 44.3258442,36.4699631 43.6881654,33.5084459 C44.3637698,33.8041267 46.2328537,33.9872147 45.1159603,32.8086299 C44.6734953,32.3418481 43.8375157,32.1519103 43.2698081,31.8773496 C42.6087566,31.5576947 41.9375622,31.1445692 41.424244,30.6231322 C39.3515674,28.5176908 41.4449708,24.2328879 44.0500753,23.526793 C47.9205416,22.4777826 48.7870968,27.3115643 51.5500776,28.5619288 C53.1386887,29.2808669 54.8005049,28.2982134 55.9907505,27.294868 C57.5850944,25.9507477 58.6717062,24.1700985 59.6098496,22.3580547 C60.3826198,20.8658085 61.1017357,19.352585 61.8893528,17.8677594 C62.2571427,17.174365 63.5304423,15.2141954 62.8909995,14.4301847 C65.6632412,13.9419974 68.7509413,14.9593277 71.1384883,16.2934589 C72.1252882,16.8450063 72.8776257,17.4530642 73.4040268,18.4267273 C73.5167745,18.6353593 73.7622617,19.2555469 74.0705172,19.280948 C74.6443987,19.3283255 74.4299282,18.7089941 74.3733338,18.4143122" id="hair" fill="#191847"></path>
                    <path d="M48,48.4849307 C50.8378724,45.2723758 94.3468971,92.7761795 103.633966,97.777863 C112.921035,102.777671 110.788867,97.777863 110.788867,97.777863 L92.1507452,77.0603534 L56.3084924,37 L48,48.4849307" id="Fill-125" fill="#E5455A"></path>
                    <path d="M52.997099,30.3138669 C45.0786751,26.4760324 35.6400954,27.4567493 28.7445625,32.9253328 L28.5271273,33.0972889 C16.500123,42.7136059 1.30801805,61.6079965 5.80987268,94 L48.3023888,88.9603621 C48.3023888,88.9603621 42.3276468,81.7438727 50.0286354,60.3816279 C54.2638955,48.6300313 58,37.6569613 58,37.6569613 L52.997099,30.3138669" id="Fill-126" fill="#FA596E"></path>
                    <path d="M30.1804756,45.7364209 C30.1804756,45.7364209 33.8081387,83.9149883 48.3226017,88.9565486 C62.83897,94 88.9680519,94 88.9680519,94 C88.9680519,94 90.9743173,91.3430637 63.1895425,84.7565091 C62.036845,84.4823057 60.8307994,84.2024291 59.5733111,83.9149883 C59.5733111,83.9149883 43.8204127,74.8795138 44.6339695,47.2587225 C44.6701699,46.0049511 44.6206325,44.7530708 44.430104,43.5163189 C43.8051704,39.4524356 41.825579,31.2944119 36.05447,32.048944 C28.3952233,33.0512046 30.1804756,45.7364209 30.1804756,45.7364209" id="Fill-127" fill="#E5455A"></path>
                    <path d="M6,94.0404904 C6,94.0404904 38.4296789,132.720878 44.9171282,144.182081 C51.4026856,155.643285 48.5193748,196.369577 50.6837498,197.495953 C52.844341,198.622329 61.1234539,197.509116 61.1234539,197.509116 L61.6361686,166.600534 L61.9842849,150.415697 C62.1526672,142.651414 60.8075006,134.928499 58.0225704,127.671931 L49.2402025,104.785251 C49.2402025,104.785251 85.092394,106.998514 78.7903544,124.841888 C70.8688174,147.262221 63.6548646,164.238718 63.6548646,164.238718 L70.8631416,167.102608 C70.8631416,167.102608 104.702313,124.841888 96.8053711,106.218137 C88.9122132,87.594386 48.5193748,89.0253911 48.5193748,89.0253911 L6,94.0404904" id="Fill-128" fill="#382E65"></path>
                    <path d="M76,20.1924613 L70.2098945,32.4010954 C68.9202279,35.1204998 65.6654462,36.273665 62.9502579,34.9713342 L61.3486987,34.2025574 L58.6411642,37.2528035 C56.7353661,39.3984939 53.4518826,39.5954691 51.306903,37.6907386 L50.0191499,36.5509601 C47.5393162,34.351723 47.3116154,30.5575611 49.5139986,28.0772042 L62.8966813,13 L76,20.1924613" id="Fill-129" fill="#E7BC93"></path>
                    <path d="M55,29.7108104 C55,29.7108104 60.3339627,31.0009444 62.794194,28.131283 C62.794194,28.131283 60.0261978,20.9505949 62.8791598,20.9300573 C65.7302337,20.9095197 65.911494,26.3930561 65.911494,26.3930561 C65.911494,26.3930561 67.9336795,20.5995888 69.4894973,20.0039987 C69.4894973,20.0039987 76.4812367,26.1204663 79,21.0607511 C79,21.0607511 78.6223743,17.6160372 74.4477224,13.5141204 C70.2749587,9.4159378 61.97097,11.5611824 61.97097,11.5611824 L55,29.7108104" id="Fill-130" fill="#191847"></path>
                    <path d="M47,27.0112455 C47,27.0112455 51.011369,29.860849 55.5457129,29.9992529 C60.0819517,30.1376568 63,11 63,11 L47,27.0112455" id="Fill-133" fill="#191847"></path>
                </g>
            </g>
        </g>
    </g>
</svg>